# xmcd
#
# Track frame offsets:
#	180
#	15213
#	35887
#	55571
#	74692
#	92630
#	113971
#	130755
#	146142
#	167625
#
# Disc length: 2479 seconds
# Revision: 0
# Processed by: cddbd v1.5.2PL0 Copyright (c) Steve Scherf et al.
# Submitted via: dBpowerAMP V12.0
#
DISCID=8709ad0a
DTITLE=Peggy James - Crossroad Moment
DYEAR=2005
DGENRE=Country
TTITLE0=So Subtle
TTITLE1=1,000 Reasons
TTITLE2=Guardian Angel
TTITLE3=Lookin' In The Heavens
TTITLE4=There Must Be Gold
TTITLE5=Help Me Out
TTITLE6=You Made My Life
TTITLE7=Gettin' Serious
TTITLE8=Till I Turn Blue
TTITLE9=Crossroad Moment
EXTD=
EXTT0=
EXTT1=
EXTT2=
EXTT3=
EXTT4=
EXTT5=
EXTT6=
EXTT7=
EXTT8=
EXTT9=
PLAYORDER=
